<svg xmlns="http://www.w3.org/2000/svg" xmlns:xlink="http://www.w3.org/1999/xlink" width="181.78" height="38.419" viewBox="0 0 181.78 38.419"><defs><clipPath id="a"><rect width="181.78" height="38.419" fill="none"/></clipPath></defs><g transform="translate(0 0)" clip-path="url(#a)"><path d="M33.873,2.358A10.857,10.857,0,0,0,23,13.291,10.886,10.886,0,1,0,33.873,2.358m0,18.777a7.873,7.873,0,1,1,7.873-7.844,7.861,7.861,0,0,1-7.873,7.844" transform="translate(60.994 6.253)" fill="#fff"/><path d="M56.492,15.072a6.728,6.728,0,0,0,4.481-6.149,6.533,6.533,0,0,0-6.6-6.482H46.136a.578.578,0,0,0-.577.577V23.066a.577.577,0,0,0,.577.573H48.1a.6.6,0,0,0,.577-.573V15.342h4.572l4.024,8.023a.566.566,0,0,0,.486.274h2.366a.571.571,0,0,0,.511-.876ZM48.74,12.739V5.377h5.39a3.716,3.716,0,0,1,3.7,3.608,3.762,3.762,0,0,1-3.7,3.754Z" transform="translate(120.807 6.473)" fill="#fff"/><path d="M50.39,2.441H48.24a.551.551,0,0,0-.511.336L41.064,17.763h-.183L34.221,2.777a.591.591,0,0,0-.515-.336H31.555a.536.536,0,0,0-.515.789l9.235,20.38.022.033H41.59l.022-.033,9.3-20.38a.537.537,0,0,0-.519-.789" transform="translate(82.147 6.473)" fill="#fff"/><path d="M25.862,21.135a7.875,7.875,0,1,1,6.3-12.554l2.8-1.337a10.885,10.885,0,0,0-19.967,6.044,10.9,10.9,0,0,0,20.245,5.6l-2.8-1.285a7.884,7.884,0,0,1-6.569,3.535" transform="translate(39.751 6.253)" fill="#fff"/><path d="M51.584,2.441H39.472a.579.579,0,0,0-.581.577V23.066a.578.578,0,0,0,.581.573H51.584a.574.574,0,0,0,.573-.573V21.4a.575.575,0,0,0-.573-.577H42.075V14.313H50.1a.578.578,0,0,0,.577-.577V12.041a.6.6,0,0,0-.577-.577H42.075V5.289h9.509a.575.575,0,0,0,.573-.577V3.018a.575.575,0,0,0-.573-.577" transform="translate(103.126 6.473)" fill="#fff"/><path d="M37.893,13.942,8.45.46A5.1,5.1,0,0,0,6.328,0,5.1,5.1,0,0,0,4.057.588c-.164.084-.34.128-.493.226l-1.234.8A4.984,4.984,0,0,0,1.1,2.779c-.04.051-.106.084-.146.139l.037.015A5.056,5.056,0,0,0,0,5.894v26.46a5.087,5.087,0,0,0,2.326,4.28L3.82,37.6a5.095,5.095,0,0,0,4.963.321L37.944,23.988a5.087,5.087,0,0,0,2.6-2.943l.015.007.011-.062a4.959,4.959,0,0,0,.256-1.395.523.523,0,0,0,.015-.08l.007-.376.011-.435a5.1,5.1,0,0,0-2.969-4.762M6.606,33.033,5.35,32.215V4.93L36.027,18.974Z" transform="translate(0 0)" fill="#fff"/></g></svg>